<?xml version="1.0" encoding="UTF-8" standalone="no"?>
<svg
   viewBox="4 10.47 1417.7762 251.34862"
   width="2340"
   height="400"
   version="1.1"
   id="svg19"
   sodipodi:docname="audioboox.svg"
   inkscape:version="1.1.1 (3bf5ae0d25, 2021-09-20)"
   xmlns:inkscape="http://www.inkscape.org/namespaces/inkscape"
   xmlns:sodipodi="http://sodipodi.sourceforge.net/DTD/sodipodi-0.dtd"
   xmlns="http://www.w3.org/2000/svg"
   xmlns:svg="http://www.w3.org/2000/svg">
  <defs
     id="defs23" />
  <sodipodi:namedview
     id="namedview21"
     pagecolor="#ffffff"
     bordercolor="#666666"
     borderopacity="1.0"
     inkscape:pageshadow="2"
     inkscape:pageopacity="0.0"
     inkscape:pagecheckerboard="0"
     showgrid="false"
     inkscape:zoom="0.16206887"
     inkscape:cx="-237.55333"
     inkscape:cy="-928.61754"
     inkscape:window-width="1920"
     inkscape:window-height="1027"
     inkscape:window-x="-8"
     inkscape:window-y="-8"
     inkscape:window-maximized="1"
     inkscape:current-layer="svg19" />
  <linearGradient
     id="a"
     gradientUnits="userSpaceOnUse"
     x1="10.42"
     x2="217.58"
     y1="85.190002"
     y2="230.25"
     gradientTransform="matrix(0.99174802,0,0,0.99174802,-26.273606,-20.274189)">
    <stop
       offset="0"
       stop-color="#6d3dec"
       id="stop2" />
    <stop
       offset=".87"
       stop-color="#4ba8e9"
       id="stop4" />
  </linearGradient>
  <path
     d="M -22.306614,198.98146 V 73.307155 Q 1.0490524,59.690455 24.404718,46.093589 55.148906,28.242125 85.893095,10.469999 h 1.745477 Q 116.1315,26.972687 144.6145,43.475374 170.25119,58.351595 195.85812,73.307155 V 198.98146 c -1.9835,1.24961 -3.8579,2.58847 -5.86123,3.74881 q -51.1742,29.55409 -102.358318,59.08835 H 85.893095 Q 64.411833,249.32259 42.930571,236.81665 10.341731,217.88418 -22.306614,198.98146 Z M 164.14202,136.422 c 0,-13.51753 -0.0893,-27.03505 0.0595,-40.552574 0,-3.183511 -1.11075,-5.018246 -3.84798,-6.585207 Q 125.34484,69.270741 90.484893,49.019246 a 6.3273524,6.3273524 0 0 0 -7.21993,0 Q 48.60337,69.1914 13.842602,89.105701 c -3.183511,1.814901 -4.4231963,3.966995 -4.4033613,7.606711 q 0.1983496,39.253378 0,78.496848 c 0,3.967 1.2000153,6.32736 4.7108033,8.32077 q 34.502913,19.57711 68.767807,39.57075 c 2.866152,1.66613 5.107507,1.73555 8.003412,0.0496 q 34.542587,-20.18209 69.412447,-40.06664 c 2.97524,-1.68597 3.96699,-3.71905 3.88765,-7.00174 -0.14876,-13.22992 -0.0793,-26.45984 -0.0793,-39.66 z"
     fill="url(#a)"
     id="path17"
     style="fill:url(#a);stroke-width:0.991748" />
  <path
     id="path1487"
     style="font-weight:600;font-size:218.647px;line-height:1.25;font-family:Poppins;-inkscape-font-specification:'Poppins, Semi-Bold';stroke-width:5.44776"
     d="m 1413.653,206.81099 -24.8416,-37.48041 -22.0089,37.48041 h -32.6863 l 39.4416,-60.57882 -39.8775,-60.142999 h 34.4297 l 24.6238,37.262509 22.2267,-37.262509 h 32.6865 l -39.6596,60.142999 40.0954,60.57882 z m -152.1004,1.96119 q -17.4328,0 -31.379,-7.62683 -13.9462,-7.84474 -22.0088,-22.00885 -7.8448,-14.16411 -7.8448,-32.68642 0,-18.5223 8.0626,-32.68641 8.2806,-14.164115 22.4448,-21.790945 14.164,-7.844739 31.5968,-7.844739 17.4327,0 31.5969,7.844739 14.1641,7.62683 22.2267,21.790945 8.2806,14.16411 8.2806,32.68641 0,18.52231 -8.4985,32.68642 -8.2805,14.16411 -22.6625,22.00885 -14.1642,7.62683 -31.8148,7.62683 z m 0,-26.58495 q 8.2805,0 15.4715,-3.92237 7.4089,-4.14028 11.7672,-12.20293 4.3581,-8.06265 4.3581,-19.61185 0,-17.21484 -9.1522,-26.36704 -8.9343,-9.37011 -22.0088,-9.37011 -13.0745,0 -22.0089,9.37011 -8.7163,9.1522 -8.7163,26.36704 0,17.21485 8.4984,26.58496 8.7164,9.15219 21.791,9.15219 z m -139.026,26.58495 q -17.4327,0 -31.3788,-7.62683 -13.9462,-7.84474 -22.009,-22.00885 -7.8447,-14.16411 -7.8447,-32.68642 0,-18.5223 8.0627,-32.68641 8.2806,-14.164115 22.4446,-21.790945 14.1642,-7.844739 31.5969,-7.844739 17.4328,0 31.5968,7.844739 14.1642,7.62683 22.2268,21.790945 8.2806,14.16411 8.2806,32.68641 0,18.52231 -8.4985,32.68642 -8.2805,14.16411 -22.6625,22.00885 -14.1642,7.62683 -31.8149,7.62683 z m 0,-26.58495 q 8.2806,0 15.4717,-3.92237 7.4089,-4.14028 11.767,-12.20293 4.3583,-8.06265 4.3583,-19.61185 0,-17.21484 -9.1522,-26.36704 -8.9343,-9.37011 -22.0089,-9.37011 -13.0746,0 -22.0088,9.37011 -8.7164,9.1522 -8.7164,26.36704 0,17.21485 8.4984,26.58496 8.7164,9.15219 21.7909,9.15219 z M 951.6858,103.73984 q 5.88355,-8.716383 16.1253,-14.164119 10.45965,-5.447735 23.75212,-5.447735 15.47158,0 27.89238,7.62683 12.6387,7.62683 19.8298,21.790934 7.4089,13.94621 7.4089,32.46852 0,18.52229 -7.4089,32.90432 -7.1911,14.16411 -19.8298,22.00885 -12.4208,7.84474 -27.89238,7.84474 -13.51038,0 -23.75212,-5.22982 -10.02383,-5.44774 -16.1253,-13.94621 v 17.21484 H 921.17848 V 45.558016 h 30.50732 z m 63.8475,42.27443 q 0,-10.89547 -4.5761,-18.74021 -4.3582,-8.06265 -11.76714,-12.20294 -7.19101,-4.14027 -15.68949,-4.14027 -8.28055,0 -15.68947,4.35818 -7.19101,4.14028 -11.76711,12.20293 -4.35819,8.06265 -4.35819,18.95812 0,10.89547 4.35819,18.95812 4.5761,8.06265 11.76711,12.42084 7.40892,4.14028 15.68947,4.14028 8.49848,0 15.68949,-4.35819 7.40894,-4.35819 11.76714,-12.42084 4.5761,-8.06265 4.5761,-19.17602 z m -179.77503,62.75791 q -17.43275,0 -31.37895,-7.62683 -13.9462,-7.84474 -22.00885,-22.00885 -7.84474,-14.16411 -7.84474,-32.68642 0,-18.5223 8.06265,-32.68641 8.28055,-14.164115 22.44467,-21.790945 14.16411,-7.844739 31.59686,-7.844739 17.43276,0 31.59688,7.844739 14.1641,7.62683 22.22675,21.790945 8.28057,14.16411 8.28057,32.68641 0,18.52231 -8.49847,32.68642 -8.28056,14.16411 -22.66258,22.00885 -14.16412,7.62683 -31.81479,7.62683 z m 0,-26.58495 q 8.28057,0 15.47158,-3.92237 7.40892,-4.14028 11.76711,-12.20293 4.35819,-8.06265 4.35819,-19.61185 0,-17.21484 -9.1522,-26.36704 -8.93429,-9.37011 -22.00885,-9.37011 -13.07457,0 -22.00886,9.37011 -8.71637,9.1522 -8.71637,26.36704 0,17.21485 8.49846,26.58496 8.71638,9.15219 21.79094,9.15219 z M 737.04532,71.707148 q -8.06264,0 -13.51038,-5.011917 -5.22983,-5.229826 -5.22983,-12.856657 0,-7.62683 5.22983,-12.638747 5.44774,-5.229826 13.51038,-5.229826 8.06265,0 13.29248,5.229826 5.44774,5.011917 5.44774,12.638747 0,7.626831 -5.44774,12.856657 -5.22983,5.011917 -13.29248,5.011917 z m 15.03576,14.382023 V 206.81099 H 721.57376 V 86.089171 Z M 565.98654,146.01427 q 0,-18.3044 7.19101,-32.46852 7.40892,-14.164104 20.04767,-21.790934 12.63874,-7.62683 28.11031,-7.62683 11.76711,0 22.44467,5.229826 10.67757,5.011917 16.99694,13.510388 V 45.558016 h 30.94314 V 206.81099 h -30.94314 v -17.86856 q -5.66564,8.93427 -15.90738,14.38202 -10.24175,5.44773 -23.75214,5.44773 -15.25366,0 -27.8924,-7.84474 -12.63875,-7.84474 -20.04767,-22.00885 -7.19101,-14.38203 -7.19101,-32.90432 z m 95.00852,0.43581 q 0,-11.11338 -4.35819,-18.95812 -4.35819,-8.06265 -11.76711,-12.20293 -7.40893,-4.35818 -15.90739,-4.35818 -8.49848,0 -15.68949,4.14027 -7.19101,4.14029 -11.76711,12.20294 -4.35819,7.84474 -4.35819,18.74021 0,10.89547 4.35819,19.17602 4.5761,8.06265 11.76711,12.42084 7.40893,4.35819 15.68949,4.35819 8.49846,0 15.90739,-4.14028 7.40892,-4.35819 11.76711,-12.20292 4.35819,-8.06265 4.35819,-19.17604 z M 543.75993,86.089171 V 206.81099 h -30.72522 v -15.25366 q -5.88356,7.84474 -15.47158,12.42084 -9.3701,4.35819 -20.48349,4.35819 -14.1641,0 -25.05958,-5.88355 -10.89547,-6.10146 -17.21485,-17.65067 -6.10146,-11.7671 -6.10146,-27.8924 V 86.089171 h 30.50732 v 66.462379 q 0,14.38202 7.19102,22.22676 7.19101,7.62683 19.61184,7.62683 12.63874,0 19.82976,-7.62683 7.19102,-7.84474 7.19102,-22.22676 V 86.089171 Z M 274.20608,146.01427 q 0,-18.3044 7.19101,-32.46852 7.40891,-14.164104 19.82975,-21.790934 12.63875,-7.62683 28.11033,-7.62683 13.51038,0 23.53421,5.447735 10.24174,5.447736 16.34321,13.728299 V 86.089171 h 30.72523 V 206.81099 h -30.72523 v -17.65066 q -5.88355,8.49847 -16.34321,14.16412 -10.24175,5.44773 -23.75213,5.44773 -15.25366,0 -27.89241,-7.84474 -12.42084,-7.84474 -19.82975,-22.00885 -7.19101,-14.38203 -7.19101,-32.90432 z m 95.00851,0.43581 q 0,-11.11338 -4.35819,-18.95812 -4.35819,-8.06265 -11.76711,-12.20293 -7.40892,-4.35818 -15.90739,-4.35818 -8.49846,0 -15.68947,4.14027 -7.19102,4.14029 -11.76711,12.20294 -4.35819,7.84474 -4.35819,18.74021 0,10.89547 4.35819,19.17602 4.57609,8.06265 11.76711,12.42084 7.40891,4.35819 15.68947,4.35819 8.49847,0 15.90739,-4.14028 7.40892,-4.35819 11.76711,-12.20292 4.35819,-8.06265 4.35819,-19.17604 z" />
</svg>
